<?xml version="1.0" standalone="no"?>
<!DOCTYPE svg PUBLIC "-//W3C//DTD SVG 20010904//EN"
 "http://www.w3.org/TR/2001/REC-SVG-20010904/DTD/svg10.dtd">
<svg version="1.0" xmlns="http://www.w3.org/2000/svg"
 width="300.000000pt" height="278.000000pt" viewBox="0 0 300.000000 278.000000"
 preserveAspectRatio="xMidYMid meet">
<metadata>
Created by potrace 1.10, written by Peter Selinger 2001-2011
</metadata>
<g transform="translate(0.000000,278.000000) scale(0.050000,-0.050000)"
fill="#a24bd0" stroke="none">
<path d="M4060 5147 c-323 -62 -667 -203 -890 -363 -77 -56 -194 -131 -260
-167 -152 -84 -375 -304 -503 -497 -54 -83 -118 -177 -141 -210 -169 -241
-418 -646 -546 -890 -155 -293 -324 -601 -461 -840 -41 -71 -125 -222 -188
-335 -62 -112 -142 -243 -178 -290 -81 -106 -250 -382 -285 -466 -41 -98 -202
-301 -294 -370 -68 -52 -75 -62 -34 -52 41 9 45 7 20 -13 -47 -38 -47 -121 -1
-163 44 -40 241 -70 241 -37 0 11 22 30 50 42 27 13 50 39 50 59 0 66 119 288
160 299 36 10 48 29 43 69 -1 7 43 54 98 104 54 50 99 109 99 130 0 21 51 108
114 194 63 87 197 319 298 518 368 723 444 869 502 954 33 48 112 186 176 307
64 121 133 252 154 290 261 489 791 1096 1088 1245 761 382 1355 308 1607
-199 68 -137 76 -186 31 -186 -16 0 -30 -14 -30 -31 0 -17 -8 -26 -18 -21 -9
6 -23 -16 -29 -49 -38 -188 -106 -274 -287 -360 -94 -44 -186 -77 -203 -72
-28 7 -28 9 2 11 57 3 40 36 -25 49 -177 35 -486 -225 -640 -538 -78 -160 -53
-684 37 -766 19 -18 47 -69 62 -113 14 -44 64 -143 111 -220 46 -77 107 -180
136 -230 28 -49 138 -184 243 -300 326 -359 457 -510 575 -662 191 -248 248
-298 340 -298 63 0 78 6 69 30 -14 36 -4 37 53 7 24 -12 38 -16 31 -8 -7 7 -1
37 14 66 29 56 12 112 -40 132 -17 6 -31 21 -31 32 0 12 -37 59 -83 106 -45
47 -132 153 -193 235 -61 83 -193 236 -293 340 -448 465 -668 796 -670 1011
-1 56 -14 91 -43 116 -79 67 -48 351 55 514 l80 127 102 -5 c63 -4 125 6 162
26 34 17 76 31 94 31 18 0 57 17 86 37 29 21 116 72 193 114 77 42 177 106
222 142 74 61 95 92 168 250 13 29 46 64 72 78 146 78 -13 534 -282 809 -209
213 -663 340 -990 277z m1015 -1208 c-24 -37 -75 -20 -75 26 0 11 14 9 30 -5
26 -22 29 -20 18 7 -9 25 -4 30 19 21 25 -9 27 -19 8 -49z"/>
<path d="M2901 1405 c-67 -81 -141 -257 -141 -334 0 -27 -9 -73 -21 -103 -25
-66 11 -119 61 -88 20 13 22 19 5 20 -56 0 61 279 138 327 50 31 97 -18 97
-99 0 -38 9 -68 20 -68 11 0 20 28 20 61 0 199 -149 192 -258 -11 l-43 -80 12
70 c20 110 77 225 146 294 65 65 76 86 44 86 -10 0 -46 -34 -80 -75z"/>
<path d="M2612 1330 c-107 -417 -194 -491 -271 -232 -23 77 -52 146 -64 154
-15 9 -14 18 3 28 13 8 16 20 6 26 -50 31 -67 -21 -28 -88 21 -37 50 -110 63
-162 25 -103 81 -167 128 -149 68 26 202 342 186 437 -7 42 -9 40 -23 -14z"/>
<path d="M1746 1293 c-34 -37 -67 -102 -75 -143 -7 -41 -54 -172 -102 -291
-49 -119 -89 -234 -89 -255 0 -48 51 -95 69 -65 8 12 4 21 -8 21 -37 0 -23 76
50 267 68 176 74 185 125 178 130 -19 247 130 213 269 -27 107 -100 115 -183
19z m151 -40 c13 -118 -31 -183 -150 -221 -55 -17 -71 23 -45 114 44 161 180
235 195 107z"/>
<path d="M3407 1231 c-23 -17 -71 -75 -107 -130 -72 -113 -113 -128 -126 -46
-7 51 -8 50 -11 -11 -2 -41 8 -69 27 -77 22 -8 24 -20 10 -48 -28 -51 -25 -73
12 -87 23 -9 29 -4 21 17 -21 54 27 146 88 172 33 13 86 55 119 92 95 108 71
191 -33 118z m53 -29 c0 -26 -100 -142 -122 -142 -33 0 -19 35 40 98 60 64 82
76 82 44z"/>
<path d="M3744 1236 c-42 -42 -30 -243 18 -304 58 -73 66 -56 18 39 -45 86
-53 208 -16 245 13 13 19 28 13 33 -5 6 -20 0 -33 -13z"/>
<path d="M3704 575 c-21 -58 -45 -125 -53 -150 -16 -51 -127 54 -115 109 8 36
-29 33 -43 -4 -7 -17 12 -58 44 -95 31 -36 62 -81 69 -100 19 -52 52 -42 65
20 11 52 65 212 98 290 9 20 7 35 -5 35 -12 0 -39 -47 -60 -105z"/>
<path d="M2510 615 c13 -58 -132 -385 -171 -385 -25 0 -97 147 -126 255 -27
103 -96 -30 -131 -255 l-15 -100 -15 100 c-8 55 -27 135 -43 179 -21 56 -22
83 -7 92 16 10 15 18 -2 29 -49 31 -69 -27 -34 -100 18 -39 39 -109 45 -155
20 -147 29 -175 58 -175 18 0 32 35 41 105 34 269 66 309 116 148 74 -233 138
-219 262 60 78 175 90 247 42 247 -22 0 -28 -14 -20 -45z"/>
<path d="M2869 580 c-177 -113 -216 -318 -68 -350 122 -27 282 199 246 345
-14 57 -93 60 -178 5z m151 -69 c0 -121 -204 -301 -268 -237 -72 73 112 318
243 325 16 1 25 -29 25 -88z"/>
<path d="M3074 503 c-22 -110 10 -172 92 -179 43 -4 74 3 74 15 0 11 -26 21
-58 21 -65 0 -93 60 -70 150 7 28 4 50 -7 50 -11 0 -25 -26 -31 -57z"/>
</g>
</svg>
